<svg xmlns="http://www.w3.org/2000/svg" viewBox="0 0 241.09 281.94"><defs><style>.cls-1{font-size:30px;fill:#afaeb0;font-family:Arial-Black, Arial;}.cls-2{letter-spacing:-0.02em;}.cls-3{fill:#f1d000;}.cls-4{fill:#d17f00;}.cls-5{fill:#8b621a;}.cls-6{fill:#87b137;}.cls-7{fill:#fff;}.cls-7,.cls-9{stroke:#587cb8;stroke-miterlimit:10;stroke-width:3px;}.cls-8{fill:#cab798;}.cls-9{fill:none;}</style></defs><title>Recurso 2</title><g id="Capa_2" data-name="Capa 2"><g id="logo_print"><g id="full"><text class="cls-1" transform="translate(27.36 272.74)">CEDEF<tspan class="cls-2" x="110.01" y="0">R</tspan><tspan x="132.83" y="0">UT</tspan></text><text class="cls-1" transform="translate(22.86 72.86) rotate(-48.48)">L</text><text class="cls-1" transform="matrix(0.78, -0.62, 0.62, 0.78, 35.4, 58.37)">A</text><text class="cls-1" transform="matrix(0.89, -0.46, 0.46, 0.89, 52.87, 44.39)">B</text><text class="cls-1" transform="matrix(0.96, -0.28, 0.28, 0.96, 72.64, 33.88)">O</text><text class="cls-1" transform="translate(95.67 27.17) rotate(-4.92)">R</text><text class="cls-1" transform="translate(118 25.16) rotate(5.84)">A</text><text class="cls-1" transform="translate(138.35 27.06) rotate(15.41)">T</text><text class="cls-1" transform="translate(157.48 32) rotate(25.88)">O</text><text class="cls-1" transform="translate(179.06 42.45) rotate(37.13)">R</text><text class="cls-1" transform="matrix(0.7, 0.71, -0.71, 0.7, 196.85, 56.37)">I</text><text class="cls-1" transform="matrix(0.59, 0.81, -0.81, 0.59, 204.95, 63.77)">O</text><g id="circle"><path id="right" class="cls-3" d="M155.74,77.78c0,.18,0,.35,0,.52a22.88,22.88,0,0,1-15.17,21.53,61,61,0,0,1-21.23,116.84v22.2A85.19,85.19,0,0,0,155.74,77.78Z"/><path id="letf" class="cls-4" d="M95.48,71.26a85.22,85.22,0,0,0,17.35,167.55V216.65A61,61,0,0,1,98.22,97.42a22.82,22.82,0,0,1-2.74-26.16Z"/></g><g id="tallo"><path class="cls-5" d="M126.75,92.12A27.31,27.31,0,0,0,117.56,75c-.56-.49-3.12.63-2.74,1a27,27,0,0,1,9,16.9c.07.5,3-.07,2.9-.78Z"/><path class="cls-5" d="M124,103c1.41-6.82,3.57-13.33,5.27-20.05,1.87-7.41,1.93-15.12,1.43-22.7,0-.5-2.95,0-2.9.78.53,8,.43,16.1-1.77,23.85-1.76,6.21-3.58,12.3-4.89,18.64-.13.62,2.71.19,2.86-.52Z"/><path class="cls-5" d="M129,84.46A19.1,19.1,0,0,1,139.38,78c1.81-.45,1.25-2.51-.55-2.06a22.69,22.69,0,0,0-12.29,7.61c-1.16,1.43,1.58,2,2.44.91Z"/></g><g id="hojas"><path class="cls-6" d="M174.59,42.55c-8.76-1.42-19.5,2.39-27.87,10.79-7.77,7.79-11.56,17.61-10.92,26,8.76,1.42,19.5-2.39,27.87-10.79C171.44,60.74,175.24,50.93,174.59,42.55Z"/><path class="cls-6" d="M92.89,46.81a.44.44,0,0,0-.38.31c-2.44,8-.44,17.61,6,25.08a27.9,27.9,0,0,0,17.74,9.64,23.74,23.74,0,0,0,4.42.09.44.44,0,0,0,.38-.31,23,23,0,0,0,.93-5,25.17,25.17,0,0,0-.14-5.16,28.52,28.52,0,0,0-6.83-14.93C109,49.61,100.65,46.24,92.89,46.81Z"/><path class="cls-6" d="M118.1,37.95a17.27,17.27,0,0,0,11.62,25.94A17.27,17.27,0,0,0,118.1,37.95Z"/></g><g id="matraz"><path id="matraz-2" data-name="matraz" class="cls-7" d="M150,186.82l-1-4.05L130,117.46V103.28H106.68v14.18L87.57,182.77l-1,4.05c-.53,5-.78,6.19.17,9.42a14.67,14.67,0,0,0,5.41,7.5,16.64,16.64,0,0,0,7.19,3.16l18.68.42h.5l18.68-.42a16.64,16.64,0,0,0,7.19-3.16,14.67,14.67,0,0,0,5.41-7.5C150.81,193,150.55,191.86,150,186.82Z"/><path class="cls-8" d="M107.06,187.69a121.57,121.57,0,0,0,9.9-25.75c1.54-6.07,3.59-12.59,4.4-18.76s-.65-12.62-1.08-18.79C119.76,117.08,122,110,124,103c.19-.66-2.64-.29-2.87.48-1.87,6.38-4.06,13-3.9,19.77.14,6.37,1.7,12.74,1.34,19.12-.2,3.61-1.66,7.05-2.49,10.55-.71,3-1.17,6-1.91,9a121.51,121.51,0,0,1-10,26.23c-.25.48,2.47.28,2.87-.48Z"/><path id="matraz-3" data-name="matraz" class="cls-9" d="M150,186.82l-1-4.05L130,117.46V103.28H106.68v14.18L87.57,182.77l-1,4.05c-.53,5-.78,6.19.17,9.42a14.67,14.67,0,0,0,5.41,7.5,16.64,16.64,0,0,0,7.19,3.16l18.68.42h.5l18.68-.42a16.64,16.64,0,0,0,7.19-3.16,14.67,14.67,0,0,0,5.41-7.5C150.81,193,150.55,191.86,150,186.82Z"/></g></g></g></g></svg>